<?xml version="1.0" encoding="UTF-8" standalone="no"?>
<!-- Created with Inkscape (http://www.inkscape.org/) -->

<svg
   xmlns:dc="http://purl.org/dc/elements/1.1/"
   xmlns:cc="http://creativecommons.org/ns#"
   xmlns:rdf="http://www.w3.org/1999/02/22-rdf-syntax-ns#"
   xmlns:svg="http://www.w3.org/2000/svg"
   xmlns="http://www.w3.org/2000/svg"
   xmlns:sodipodi="http://sodipodi.sourceforge.net/DTD/sodipodi-0.dtd"
   xmlns:inkscape="http://www.inkscape.org/namespaces/inkscape"
   width="155.74992"
   height="128"
   id="svg2"
   version="1.1"
   inkscape:version="0.48.4 r9939"
   sodipodi:docname="synclab.svg">
  <defs
     id="defs4" />
  <sodipodi:namedview
     id="base"
     pagecolor="#ffffff"
     bordercolor="#666666"
     borderopacity="1.0"
     inkscape:pageopacity="0.0"
     inkscape:pageshadow="2"
     inkscape:zoom="1.07"
     inkscape:cx="-137.70627"
     inkscape:cy="129"
     inkscape:document-units="px"
     inkscape:current-layer="text2985"
     showgrid="false"
     inkscape:window-width="1920"
     inkscape:window-height="1014"
     inkscape:window-x="0"
     inkscape:window-y="27"
     inkscape:window-maximized="1"
     fit-margin-top="0"
     fit-margin-left="0"
     fit-margin-right="0"
     fit-margin-bottom="0" />
  <metadata
     id="metadata7">
    <rdf:RDF>
      <cc:Work
         rdf:about="">
        <dc:format>image/svg+xml</dc:format>
        <dc:type
           rdf:resource="http://purl.org/dc/dcmitype/StillImage" />
        <dc:title />
      </cc:Work>
    </rdf:RDF>
  </metadata>
  <g
     inkscape:label="Livello 1"
     inkscape:groupmode="layer"
     id="layer1"
     style="display:inline"
     transform="translate(-207,-373.36218)">
    <g
       style="font-size:40px;font-style:normal;font-weight:normal;line-height:125%;letter-spacing:0px;word-spacing:0px;fill:#2f4f4f;fill-opacity:1;stroke:none;font-family:Sans"
       id="text2985">
      <path
         d="m 217.59429,451.60218 c 4.05332,1e-5 6.07999,-1.38666 6.08,-4.16 -1e-5,-0.85332 -0.18668,-1.57332 -0.56,-2.16 -0.34668,-0.61332 -0.82668,-1.13332 -1.44,-1.56 -0.61334,-0.45332 -1.32001,-0.83999 -2.12,-1.16 -0.77334,-0.31999 -1.60001,-0.63998 -2.48,-0.96 -1.01334,-0.34665 -1.97334,-0.73332 -2.88,-1.16 -0.90667,-0.45332 -1.69333,-0.97332 -2.36,-1.56 -0.66667,-0.61331 -1.2,-1.33331 -1.6,-2.16 -0.37333,-0.82665 -0.56,-1.82664 -0.56,-3 0,-2.42664 0.82667,-4.31997 2.48,-5.68 1.65333,-1.35997 3.93333,-2.03997 6.84,-2.04 1.67999,3e-5 3.19999,0.1867 4.56,0.56 1.38665,0.3467 2.39999,0.73336 3.04,1.16 l -1.24,3.16 c -0.56001,-0.34664 -1.40001,-0.67997 -2.52,-1 -1.09334,-0.34664 -2.37334,-0.51997 -3.84,-0.52 -0.74667,3e-5 -1.44001,0.08 -2.08,0.24 -0.64,0.16003 -1.2,0.40003 -1.68,0.72 -0.48,0.32003 -0.86667,0.73336 -1.16,1.24 -0.26667,0.48002 -0.4,1.05336 -0.4,1.72 0,0.74669 0.14666,1.37336 0.44,1.88 0.29333,0.50669 0.70666,0.96002 1.24,1.36 0.53333,0.37335 1.14666,0.72002 1.84,1.04 0.71999,0.32002 1.50666,0.64002 2.36,0.96 1.19999,0.48002 2.29332,0.96002 3.28,1.44 1.01332,0.48002 1.87999,1.05335 2.6,1.72 0.74665,0.66668 1.31999,1.46668 1.72,2.4 0.39998,0.90668 0.59998,2.01334 0.6,3.32 -2e-5,2.42667 -0.89335,4.29334 -2.68,5.6 -1.76001,1.30667 -4.25334,1.96 -7.48,1.96 -1.09334,0 -2.10667,-0.08 -3.04,-0.24 -0.90667,-0.13333 -1.72,-0.29333 -2.44,-0.48 -0.72,-0.21333 -1.34667,-0.42666 -1.88,-0.64 -0.50666,-0.24 -0.90666,-0.44 -1.2,-0.6 l 1.16,-3.2 c 0.61333,0.34667 1.54667,0.73334 2.8,1.16 1.25333,0.42667 2.78666,0.64001 4.6,0.64"
         style="font-variant:normal;font-stretch:normal;fill:#2f4f4f;font-family:Ubuntu;-inkscape-font-specification:Ubuntu"
         id="path3002" />
      <path
         d="m 229.72429,458.24218 c 0.29334,0.13333 0.66667,0.25333 1.12,0.36 0.48,0.13333 0.94667,0.2 1.4,0.2 1.46667,0 2.61333,-0.33333 3.44,-1 0.82666,-0.64 1.57333,-1.69333 2.24,-3.16 -1.68,-3.19999 -3.25333,-6.58666 -4.72,-10.16 -1.44,-3.59998 -2.64,-7.23998 -3.6,-10.92 l 4,0 c 0.29333,1.20002 0.64,2.49335 1.04,3.88 0.42666,1.38668 0.89333,2.81335 1.4,4.28 0.50666,1.46668 1.05333,2.93335 1.64,4.4 0.58666,1.46668 1.19999,2.88001 1.84,4.24 1.01333,-2.79999 1.89333,-5.57332 2.64,-8.32 0.74666,-2.74665 1.45332,-5.57331 2.12,-8.48 l 3.84,0 c -0.96001,3.92002 -2.02668,7.69335 -3.2,11.32 -1.17334,3.60001 -2.44001,6.97334 -3.8,10.12 -0.53334,1.2 -1.09334,2.22667 -1.68,3.08 -0.56001,0.88 -1.18667,1.6 -1.88,2.16 -0.69334,0.56 -1.48,0.97333 -2.36,1.24 -0.85333,0.26666 -1.82667,0.4 -2.92,0.4 -0.29333,0 -0.6,-0.0267 -0.92,-0.08 -0.32,-0.0267 -0.64,-0.08 -0.96,-0.16 -0.29333,-0.0533 -0.57333,-0.12 -0.84,-0.2 -0.24,-0.08 -0.41333,-0.14667 -0.52,-0.2 l 0.68,-3"
         style="font-variant:normal;font-stretch:normal;fill:#2f4f4f;font-family:Ubuntu;-inkscape-font-specification:Ubuntu"
         id="path3004" />
      <path
         d="m 252.00804,434.16218 c 0.85333,-0.21331 1.98667,-0.43998 3.4,-0.68 1.41333,-0.23998 3.03999,-0.35998 4.88,-0.36 1.65332,2e-5 3.02666,0.24002 4.12,0.72 1.09332,0.45336 1.95999,1.10669 2.6,1.96 0.66665,0.82669 1.13332,1.82669 1.4,3 0.26665,1.17335 0.39998,2.46668 0.4,3.88 l 0,11.68 -3.72,0 0,-10.88 c -10e-6,-1.27999 -0.0933,-2.37332 -0.28,-3.28 -0.16001,-0.90665 -0.44001,-1.63998 -0.84,-2.2 -0.40001,-0.55998 -0.93334,-0.95998 -1.6,-1.2 -0.66668,-0.26665 -1.49334,-0.39998 -2.48,-0.4 -0.40001,2e-5 -0.81334,0.0134 -1.24,0.04 -0.42667,0.0267 -0.84,0.0667 -1.24,0.12 -0.37334,0.0267 -0.72,0.0667 -1.04,0.12 -0.29334,0.0533 -0.50667,0.0933 -0.64,0.12 l 0,17.56 -3.72,0 0,-20.2"
         style="font-variant:normal;font-stretch:normal;fill:#2f4f4f;font-family:Ubuntu;-inkscape-font-specification:Ubuntu"
         id="path3006" />
      <path
         d="m 284.01679,454.84218 c -1.68001,0 -3.16,-0.26666 -4.44,-0.8 -1.25334,-0.53333 -2.32,-1.28 -3.2,-2.24 -0.85333,-0.95999 -1.49333,-2.09333 -1.92,-3.4 -0.42666,-1.33332 -0.64,-2.79999 -0.64,-4.4 0,-1.59999 0.22667,-3.06665 0.68,-4.4 0.48,-1.33331 1.14667,-2.47998 2,-3.44 0.85333,-0.98664 1.89333,-1.74664 3.12,-2.28 1.25333,-0.55998 2.63999,-0.83998 4.16,-0.84 0.93332,2e-5 1.86666,0.08 2.8,0.24 0.93332,0.16002 1.82665,0.41336 2.68,0.76 l -0.84,3.16 c -0.56001,-0.26665 -1.21334,-0.47998 -1.96,-0.64 -0.72001,-0.15998 -1.49334,-0.23998 -2.32,-0.24 -2.08001,2e-5 -3.68,0.65335 -4.8,1.96 -1.09334,1.30668 -1.64,3.21335 -1.64,5.72 0,1.12001 0.12,2.14668 0.36,3.08 0.26666,0.93334 0.66666,1.73334 1.2,2.4 0.56,0.66667 1.26666,1.18667 2.12,1.56 0.85333,0.34667 1.89333,0.52001 3.12,0.52 0.98666,10e-6 1.87999,-0.0933 2.68,-0.28 0.79999,-0.18666 1.42665,-0.38666 1.88,-0.6 l 0.52,3.12 c -0.21335,0.13334 -0.52001,0.26667 -0.92,0.4 -0.40001,0.10667 -0.85334,0.2 -1.36,0.28 -0.50668,0.10667 -1.05334,0.18667 -1.64,0.24 -0.56001,0.08 -1.10668,0.12 -1.64,0.12"
         style="font-variant:normal;font-stretch:normal;fill:#2f4f4f;font-family:Ubuntu;-inkscape-font-specification:Ubuntu"
         id="path3008" />
      <path
         d="m 319.70929,451.00218 0,3.36 -16.68,0 0,-27.72 3.88,0 0,24.36 12.8,0"
         style="font-variant:normal;font-stretch:normal;fill:#2f4f4f;font-family:Ubuntu;-inkscape-font-specification:Ubuntu"
         id="path3010" />
      <path
         d="m 330.61054,451.68218 c 0.87999,10e-6 1.65333,-0.0133 2.32,-0.04 0.69332,-0.0533 1.26666,-0.13333 1.72,-0.24 l 0,-6.2 c -0.26668,-0.13332 -0.70668,-0.23999 -1.32,-0.32 -0.58667,-0.10665 -1.30667,-0.15999 -2.16,-0.16 -0.56001,1e-5 -1.16001,0.04 -1.8,0.12 -0.61334,0.08 -1.18667,0.25335 -1.72,0.52 -0.50667,0.24001 -0.93334,0.58668 -1.28,1.04 -0.34667,0.42668 -0.52,1.00001 -0.52,1.72 0,1.33334 0.42667,2.26667 1.28,2.8 0.85333,0.50667 2.01333,0.76001 3.48,0.76 m -0.32,-18.64 c 1.49333,2e-5 2.74666,0.20002 3.76,0.6 1.03999,0.37336 1.86666,0.92002 2.48,1.64 0.63999,0.69335 1.09332,1.53335 1.36,2.52 0.26665,0.96002 0.39999,2.02668 0.4,3.2 l 0,13 c -0.32001,0.0533 -0.77335,0.13334 -1.36,0.24 -0.56001,0.08 -1.20001,0.16 -1.92,0.24 -0.72001,0.08 -1.50668,0.14667 -2.36,0.2 -0.82667,0.08 -1.65334,0.12 -2.48,0.12 -1.17334,0 -2.25334,-0.12 -3.24,-0.36 -0.98667,-0.24 -1.84,-0.61333 -2.56,-1.12 -0.72,-0.53333 -1.28,-1.22666 -1.68,-2.08 -0.4,-0.85333 -0.6,-1.87999 -0.6,-3.08 0,-1.14666 0.22667,-2.13332 0.68,-2.96 0.48,-0.82665 1.12,-1.49332 1.92,-2 0.8,-0.50665 1.73333,-0.87999 2.8,-1.12 1.06666,-0.23998 2.18666,-0.35998 3.36,-0.36 0.37333,2e-5 0.75999,0.0267 1.16,0.08 0.39999,0.0267 0.77333,0.08 1.12,0.16 0.37332,0.0534 0.69332,0.10668 0.96,0.16 0.26666,0.0533 0.45332,0.0933 0.56,0.12 l 0,-1.04 c -10e-6,-0.61332 -0.0667,-1.21332 -0.2,-1.8 -0.13334,-0.61332 -0.37334,-1.14665 -0.72,-1.6 -0.34668,-0.47998 -0.82667,-0.85331 -1.44,-1.12 -0.58667,-0.29331 -1.36001,-0.43998 -2.32,-0.44 -1.22667,2e-5 -2.30667,0.0933 -3.24,0.28 -0.90667,0.16002 -1.58667,0.33335 -2.04,0.52 l -0.44,-3.08 c 0.48,-0.21331 1.28,-0.41331 2.4,-0.6 1.12,-0.21331 2.33333,-0.31998 3.64,-0.32"
         style="font-variant:normal;font-stretch:normal;fill:#2f4f4f;font-family:Ubuntu;-inkscape-font-specification:Ubuntu"
         id="path3012" />
      <path
         d="m 348.14992,434.48218 c 0.45333,-0.29331 1.13332,-0.59998 2.04,-0.92 0.93332,-0.31998 1.99999,-0.47998 3.2,-0.48 1.49332,2e-5 2.81332,0.26669 3.96,0.8 1.17332,0.53336 2.15998,1.28002 2.96,2.24 0.79998,0.96002 1.39998,2.10669 1.8,3.44 0.42664,1.33335 0.63998,2.80001 0.64,4.4 -2e-5,1.68001 -0.25336,3.20001 -0.76,4.56 -0.48002,1.33334 -1.17335,2.46667 -2.08,3.4 -0.90669,0.93334 -2.00002,1.65334 -3.28,2.16 -1.28001,0.50667 -2.72001,0.76 -4.32,0.76 -1.73334,0 -3.26668,-0.12 -4.6,-0.36 -1.33334,-0.24 -2.42667,-0.48 -3.28,-0.72 l 0,-29.8 3.72,-0.64 0,11.16 m 0,16.64 c 0.37333,0.10667 0.89332,0.21334 1.56,0.32 0.69332,0.08 1.54666,0.12001 2.56,0.12 1.99999,10e-6 3.59998,-0.65333 4.8,-1.96 1.19998,-1.33332 1.79998,-3.21332 1.8,-5.64 -2e-5,-1.06665 -0.10668,-2.06665 -0.32,-3 -0.21335,-0.93332 -0.56002,-1.73332 -1.04,-2.4 -0.48002,-0.69331 -1.10668,-1.22665 -1.88,-1.6 -0.74668,-0.39998 -1.65335,-0.59998 -2.72,-0.6 -1.01334,2e-5 -1.94668,0.17335 -2.8,0.52 -0.85334,0.34669 -1.50667,0.70669 -1.96,1.08 l 0,13.16"
         style="font-variant:normal;font-stretch:normal;fill:#2f4f4f;font-family:Ubuntu;-inkscape-font-specification:Ubuntu"
         id="path3014" />
    </g>
    <path
       sodipodi:type="arc"
       style="fill:#4169e1"
       id="path2989"
       sodipodi:cx="201"
       sodipodi:cy="472.36218"
       sodipodi:rx="6"
       sodipodi:ry="6"
       d="m 207,472.36218 c 0,3.31371 -2.68629,6 -6,6 -3.31371,0 -6,-2.68629 -6,-6 0,-3.31371 2.68629,-6 6,-6 3.31371,0 6,2.68629 6,6 z"
       transform="matrix(1.25,0,0,1.25,-36.75,-122.59055)" />
    <path
       sodipodi:type="arc"
       style="fill:#4169e1"
       id="path2989-0"
       sodipodi:cx="201"
       sodipodi:cy="472.36218"
       sodipodi:rx="6"
       sodipodi:ry="6"
       d="m 207,472.36218 c 0,3.31371 -2.68629,6 -6,6 -3.31371,0 -6,-2.68629 -6,-6 0,-3.31371 2.68629,-6 6,-6 3.31371,0 6,2.68629 6,6 z"
       transform="translate(21,14)" />
    <path
       sodipodi:type="arc"
       style="fill:#4169e1"
       id="path2989-6"
       sodipodi:cx="201"
       sodipodi:cy="472.36218"
       sodipodi:rx="6"
       sodipodi:ry="6"
       d="m 207,472.36218 c 0,3.31371 -2.68629,6 -6,6 -3.31371,0 -6,-2.68629 -6,-6 0,-3.31371 2.68629,-6 6,-6 3.31371,0 6,2.68629 6,6 z"
       transform="translate(37,22)" />
    <path
       sodipodi:type="arc"
       style="fill:#4169e1"
       id="path2989-1"
       sodipodi:cx="201"
       sodipodi:cy="472.36218"
       sodipodi:rx="6"
       sodipodi:ry="6"
       d="m 207,472.36218 c 0,3.31371 -2.68629,6 -6,6 -3.31371,0 -6,-2.68629 -6,-6 0,-3.31371 2.68629,-6 6,-6 3.31371,0 6,2.68629 6,6 z"
       transform="matrix(0.83333333,0,0,0.83333333,89.5,102.72703)" />
    <path
       sodipodi:type="arc"
       style="opacity:0.90425535;fill:#4169e1"
       id="path2989-3"
       sodipodi:cx="201"
       sodipodi:cy="472.36218"
       sodipodi:rx="6"
       sodipodi:ry="6"
       d="m 207,472.36218 c 0,3.31371 -2.68629,6 -6,6 -3.31371,0 -6,-2.68629 -6,-6 0,-3.31371 2.68629,-6 6,-6 3.31371,0 6,2.68629 6,6 z"
       transform="matrix(0.75,0,0,0.75,125.75,137.59055)" />
    <path
       sodipodi:type="arc"
       style="opacity:0.8;fill:#4169e1"
       id="path2989-9"
       sodipodi:cx="201"
       sodipodi:cy="472.36218"
       sodipodi:rx="6"
       sodipodi:ry="6"
       d="m 207,472.36218 c 0,3.31371 -2.68629,6 -6,6 -3.31371,0 -6,-2.68629 -6,-6 0,-3.31371 2.68629,-6 6,-6 3.31371,0 6,2.68629 6,6 z"
       transform="matrix(0.66666667,0,0,0.66666667,158,170.45406)" />
    <path
       sodipodi:type="arc"
       style="fill:#ffa500"
       id="path2989-68"
       sodipodi:cx="201"
       sodipodi:cy="472.36218"
       sodipodi:rx="6"
       sodipodi:ry="6"
       d="m 207,472.36218 c 0,3.31371 -2.68629,6 -6,6 -3.31371,0 -6,-2.68629 -6,-6 0,-3.31371 2.68629,-6 6,-6 3.31371,0 6,2.68629 6,6 z"
       transform="matrix(1.25,0,0,1.25,84.25,-170.59055)" />
    <path
       sodipodi:type="arc"
       style="fill:#ffa500"
       id="path2989-68-6"
       sodipodi:cx="201"
       sodipodi:cy="472.36218"
       sodipodi:rx="6"
       sodipodi:ry="6"
       d="m 207,472.36218 c 0,3.31371 -2.68629,6 -6,6 -3.31371,0 -6,-2.68629 -6,-6 0,-3.31371 2.68629,-6 6,-6 3.31371,0 6,2.68629 6,6 z"
       transform="matrix(1.1666667,0,0,1.1666667,104.5,-149.72703)" />
    <path
       sodipodi:type="arc"
       style="fill:#ffa500"
       id="path2989-68-1"
       sodipodi:cx="201"
       sodipodi:cy="472.36218"
       sodipodi:rx="6"
       sodipodi:ry="6"
       d="m 207,472.36218 c 0,3.31371 -2.68629,6 -6,6 -3.31371,0 -6,-2.68629 -6,-6 0,-3.31371 2.68629,-6 6,-6 3.31371,0 6,2.68629 6,6 z"
       transform="translate(129,-86)" />
    <path
       sodipodi:type="arc"
       style="fill:#ffa500"
       id="path2989-68-9"
       sodipodi:cx="201"
       sodipodi:cy="472.36218"
       sodipodi:rx="6"
       sodipodi:ry="6"
       d="m 207,472.36218 c 0,3.31371 -2.68629,6 -6,6 -3.31371,0 -6,-2.68629 -6,-6 0,-3.31371 2.68629,-6 6,-6 3.31371,0 6,2.68629 6,6 z"
       transform="translate(109,-93)" />
    <path
       sodipodi:type="arc"
       style="opacity:0.9;fill:#ffa500"
       id="path2989-68-61"
       sodipodi:cx="201"
       sodipodi:cy="472.36218"
       sodipodi:rx="6"
       sodipodi:ry="6"
       d="m 207,472.36218 c 0,3.31371 -2.68629,6 -6,6 -3.31371,0 -6,-2.68629 -6,-6 0,-3.31371 2.68629,-6 6,-6 3.31371,0 6,2.68629 6,6 z"
       transform="matrix(0.91666667,0,0,0.91666667,105.25,-52.136485)" />
    <path
       sodipodi:type="arc"
       style="opacity:0.8;fill:#ffa500"
       id="path2989-68-3"
       sodipodi:cx="201"
       sodipodi:cy="472.36218"
       sodipodi:rx="6"
       sodipodi:ry="6"
       d="m 207,472.36218 c 0,3.31371 -2.68629,6 -6,6 -3.31371,0 -6,-2.68629 -6,-6 0,-3.31371 2.68629,-6 6,-6 3.31371,0 6,2.68629 6,6 z"
       transform="matrix(0.75,0,0,0.75,121.75,31.590546)" />
    <path
       sodipodi:type="arc"
       style="opacity:0.7;fill:#4169e1"
       id="path2989-9-1"
       sodipodi:cx="201"
       sodipodi:cy="472.36218"
       sodipodi:rx="6"
       sodipodi:ry="6"
       d="m 207,472.36218 c 0,3.31371 -2.68629,6 -6,6 -3.31371,0 -6,-2.68629 -6,-6 0,-3.31371 2.68629,-6 6,-6 3.31371,0 6,2.68629 6,6 z"
       transform="matrix(0.66666667,0,0,0.66666667,170,160.45406)" />
    <path
       sodipodi:type="arc"
       style="opacity:0.6;fill:#4169e1"
       id="path2989-9-0"
       sodipodi:cx="201"
       sodipodi:cy="472.36218"
       sodipodi:rx="6"
       sodipodi:ry="6"
       d="m 207,472.36218 c 0,3.31371 -2.68629,6 -6,6 -3.31371,0 -6,-2.68629 -6,-6 0,-3.31371 2.68629,-6 6,-6 3.31371,0 6,2.68629 6,6 z"
       transform="matrix(0.5,0,0,0.5,214.5,227.18109)" />
    <path
       sodipodi:type="arc"
       style="opacity:0.7;fill:#ffa500"
       id="path2989-68-3-8"
       sodipodi:cx="201"
       sodipodi:cy="472.36218"
       sodipodi:rx="6"
       sodipodi:ry="6"
       d="m 207,472.36218 c 0,3.31371 -2.68629,6 -6,6 -3.31371,0 -6,-2.68629 -6,-6 0,-3.31371 2.68629,-6 6,-6 3.31371,0 6,2.68629 6,6 z"
       transform="matrix(0.75,0,0,0.75,110.25,39.090546)" />
    <path
       sodipodi:type="arc"
       style="opacity:0.6;fill:#ffa500"
       id="path2989-68-3-8-1"
       sodipodi:cx="201"
       sodipodi:cy="472.36218"
       sodipodi:rx="6"
       sodipodi:ry="6"
       d="m 207,472.36218 c 0,3.31371 -2.68629,6 -6,6 -3.31371,0 -6,-2.68629 -6,-6 0,-3.31371 2.68629,-6 6,-6 3.31371,0 6,2.68629 6,6 z"
       transform="matrix(0.66666667,0,0,0.66666667,115.5,87.954061)" />
    <path
       sodipodi:type="arc"
       style="opacity:0.5;fill:#ffa500"
       id="path2989-68-3-8-1-4"
       sodipodi:cx="201"
       sodipodi:cy="472.36218"
       sodipodi:rx="6"
       sodipodi:ry="6"
       d="m 207,472.36218 c 0,3.31371 -2.68629,6 -6,6 -3.31371,0 -6,-2.68629 -6,-6 0,-3.31371 2.68629,-6 6,-6 3.31371,0 6,2.68629 6,6 z"
       transform="matrix(0.66666667,0,0,0.66666667,107,98.45406)" />
  </g>
</svg>
